<?xml version="1.0" encoding="UTF-8" standalone="no"?>
<svg
   viewBox="0 0 512 512"
   version="1.1"
   id="svg3"
   sodipodi:docname="icon.svg"
   xml:space="preserve"
   inkscape:version="1.4.2 (f4327f4, 2025-05-13)"
   xmlns:inkscape="http://www.inkscape.org/namespaces/inkscape"
   xmlns:sodipodi="http://sodipodi.sourceforge.net/DTD/sodipodi-0.dtd"
   xmlns="http://www.w3.org/2000/svg"
   xmlns:svg="http://www.w3.org/2000/svg"><defs
     id="defs3"><clipPath
       clipPathUnits="userSpaceOnUse"
       id="clipPath37-5"><circle
         style="fill:none;fill-opacity:1;stroke:#000000;stroke-width:0.255623;stroke-opacity:1"
         id="circle37-9"
         cx="119.77942"
         cy="82.455788"
         r="15.04769" /></clipPath><clipPath
       clipPathUnits="userSpaceOnUse"
       id="clipPath36-09"><circle
         style="fill:none;fill-opacity:1;stroke:#000000;stroke-width:0.255623;stroke-opacity:1"
         id="circle36-5"
         cx="119.77942"
         cy="82.455788"
         r="15.04769" /></clipPath><clipPath
       clipPathUnits="userSpaceOnUse"
       id="clipPath33-2"><circle
         style="fill:none;fill-opacity:1;stroke:#000000;stroke-width:0.255623;stroke-opacity:1"
         id="circle33-4"
         cx="119.77942"
         cy="82.455788"
         r="15.04769" /></clipPath></defs><sodipodi:namedview
     id="namedview3"
     pagecolor="#0094cf"
     bordercolor="#000000"
     borderopacity="0.25"
     inkscape:showpageshadow="2"
     inkscape:pageopacity="0.0"
     inkscape:pagecheckerboard="0"
     inkscape:deskcolor="#d1d1d1"
     inkscape:zoom="0.53378276"
     inkscape:cx="172.35476"
     inkscape:cy="508.63389"
     inkscape:window-width="1920"
     inkscape:window-height="991"
     inkscape:window-x="-9"
     inkscape:window-y="-9"
     inkscape:window-maximized="1"
     inkscape:current-layer="svg3" /><!--
    GliderLog app icon
    Safe zone for maskable: central 80% (51px margin each side → 51..461)
    Background fills the full tile so maskable cropping looks correct.
  --><!-- Full background (fills entire tile for maskable) --><!-- Orange stripe — sits inside the safe zone bottom --><!-- "GL" logotype — centred, inside safe zone --><!--
    Subtle glider silhouette above the text — top-down view
    Keeps the icon recognisable at a glance
  --><!-- fuselage --><!-- main wings --><!-- tail fin horizontal --><g
     id="g3"
     transform="translate(-11.695096,-5.0715516)"><g
       id="g4"
       transform="matrix(3.4922918,0,0,3.4922918,-523.52454,-478.5448)"><path
         style="fill:#ffffff;fill-opacity:1;stroke:none;stroke-width:0.264583;stroke-opacity:1"
         d="m 89.24949,82.455788 c 0.0022,-0.03559 26.10392,0.167864 28.37385,0.74236 2.26993,0.574496 3.21031,2.032326 3.49382,3.628604 0.46115,2.596488 -0.27943,10.813132 -0.27943,10.813132 h -6.4351 c 0.84662,-0.0996 1.70559,-12.428331 0,-13.824032 -1.12484,-0.920469 -25.15314,-1.360064 -25.15314,-1.360064 z"
         id="path12-5-9"
         sodipodi:nodetypes="czsccsc"
         clip-path="url(#clipPath37-5)"
         transform="matrix(4.2546804,0,0,4.2546804,-283.36344,-139.14779)" /><path
         id="path13-6-7"
         style="fill:#ffffff;fill-opacity:1;stroke:none;stroke-width:0.264583;stroke-opacity:1"
         d="m 122.02459,67.445495 c -0.0135,7.416995 1.31714,12.364187 -0.61185,13.391948 -3.51402,1.872261 -32.156733,1.504105 -32.15204,1.618506 h -0.0114 c -3.9e-4,2.27e-4 0.007,2.94e-4 0.007,5.17e-4 1.5e-4,1.89e-4 -0.006,3.24e-4 -0.006,5.16e-4 h 0.009 c 0.0049,0.119282 27.59035,-0.08686 32.15204,1.61799 1.73677,0.64909 0.59887,6.255585 0.61237,13.391947 l 6.43475,-0.0863 c 0,0 -0.22142,-0.344849 -0.11059,-6.22236 0.11083,-5.877511 -1.39796,-8.221621 -6.32416,-8.383468 -5.61478,-0.184469 -32.67316,-0.317555 -32.73806,-0.318326 0.0631,-7.5e-4 27.12334,-0.133843 32.73857,-0.318327 4.92621,-0.161847 6.43499,-2.505957 6.32416,-8.383468 -0.11083,-5.877511 0.11111,-6.222876 0.11111,-6.222876 z"
         sodipodi:nodetypes="cscccccsccsscsscc"
         clip-path="url(#clipPath36-09)"
         transform="matrix(4.2546804,0,0,4.2546804,-283.36344,-139.14779)" /><path
         style="fill:#ffffff;fill-opacity:1;stroke:none;stroke-width:0.264583;stroke-opacity:1"
         d="m 89.25039,82.456822 c 0.02251,0.02615 26.24938,-0.07222 28.37385,-0.74236 2.12447,-0.67014 3.21031,-2.032326 3.49382,-3.628604 0.46115,-2.596488 -0.27943,-10.813132 -0.27943,-10.813132 h -6.4351 c 0.84662,0.0996 1.70559,12.428331 0,13.824032 -1.12484,0.920469 -25.15314,1.360064 -25.15314,1.360064 z"
         id="path12-5-6-33"
         sodipodi:nodetypes="czsccsc"
         clip-path="url(#clipPath33-2)"
         transform="matrix(4.2546804,0,0,4.2546804,-283.36344,-139.14779)" /></g><circle
       style="fill:none;fill-opacity:0.588889;stroke:#ffffff;stroke-width:1.079;stroke-dasharray:none;stroke-opacity:1;paint-order:stroke fill markers"
       id="path3"
       cx="266.80179"
       cy="262.39261"
       r="232.30426" /></g></svg>
